<svg width="25" height="25" viewBox="0 0 25 25" fill="none" xmlns="http://www.w3.org/2000/svg">
<path d="M18.378 24.8398H5.87569C2.73559 24.8398 0.206055 22.3275 0.206055 19.2087V5.63606C0.206055 2.51726 2.73559 0.00488281 5.87569 0.00488281H18.378C21.5181 0.00488281 24.0476 2.51726 24.0476 5.63606V19.2087C24.0476 22.3275 21.5181 24.8398 18.378 24.8398ZM12.1268 6.99332C9.10303 6.99332 6.66072 9.41906 6.66072 12.4224C6.66072 15.4257 9.10303 17.8514 12.1268 17.8514C15.1506 17.8514 17.5929 15.4257 17.5929 12.4224C17.5929 9.41906 15.1506 6.99332 12.1268 6.99332ZM18.8141 3.26808C17.9418 3.26808 17.215 3.99003 17.215 4.85636C17.215 5.7227 17.9418 6.44464 18.8141 6.44464C19.6863 6.44464 20.4132 5.7227 20.4132 4.85636C20.4132 3.99003 19.6863 3.26808 18.8141 3.26808Z" fill="#4EFF01"/>
</svg>
