<svg width="33" height="19" viewBox="0 0 33 19" fill="none" xmlns="http://www.w3.org/2000/svg">
<path fill-rule="evenodd" clip-rule="evenodd" d="M16.3334 18.5447H18.2425C18.2425 18.5447 18.8195 18.4786 19.1146 18.1571C19.3879 17.8621 19.3749 17.3072 19.3749 17.3072C19.3749 17.3072 19.3359 14.7045 20.529 14.3214C21.7005 13.9426 23.2061 16.836 24.8028 17.9502C26.009 18.7913 26.9288 18.6063 26.9288 18.6063L31.1982 18.5447C31.1982 18.5447 33.4327 18.4038 32.374 16.6246C32.2872 16.4793 31.7579 15.3078 29.2023 12.8989C26.5253 10.3799 26.8854 10.785 30.1091 6.4252C32.0746 3.76966 32.8556 2.14903 32.6126 1.45322C32.3784 0.792635 30.9335 0.968791 30.9335 0.968791L26.1261 0.999618C26.1261 0.999618 25.7703 0.951175 25.5057 1.10971C25.2453 1.26825 25.0805 1.63378 25.0805 1.63378C25.0805 1.63378 24.3212 3.69039 23.3059 5.43873C21.1668 9.12918 20.3121 9.32295 19.9606 9.09395C19.1449 8.56108 19.3489 6.94926 19.3489 5.80425C19.3489 2.2283 19.8825 0.739788 18.3076 0.352246C17.7869 0.224534 17.4007 0.140861 16.0644 0.127649C14.3505 0.110034 12.897 0.132053 12.077 0.541614C11.5303 0.814654 11.1094 1.41799 11.3654 1.45322C11.6822 1.49726 12.4024 1.65139 12.7842 2.17545C13.2745 2.85365 13.2615 4.3818 13.2615 4.3818C13.2615 4.3818 13.5435 8.5875 12.602 9.11157C11.9555 9.46828 11.0661 8.73724 9.15698 5.39029C8.18074 3.67718 7.44314 1.78351 7.44314 1.78351C7.44314 1.78351 7.29996 1.4312 7.04831 1.24183C6.74025 1.01283 6.31071 0.937963 6.31071 0.937963L1.74627 0.968791C1.74627 0.968791 1.06073 0.986406 0.809083 1.29027C0.583464 1.55891 0.791727 2.1182 0.791727 2.1182C0.791727 2.1182 4.36692 10.6089 8.41504 14.8851C12.1161 18.8045 16.3334 18.5447 16.3334 18.5447Z" fill="#4EFF01"/>
</svg>
