<svg width="102" height="38" viewBox="0 0 102 38" fill="none" xmlns="http://www.w3.org/2000/svg">
<path d="M14.541 34.6871L14.541 0.171814L11.1504 0.171814L11.1504 34.6871L14.541 34.6871Z" fill="#55FF00"/>
<path d="M24.7061 27.659L24.7061 24.2484L21.3159 24.2484L21.3159 27.659L24.7061 27.659Z" fill="#55FF00"/>
<path d="M21.3164 31.0652L21.3164 27.6548L17.9262 27.6548L17.9262 31.0652L21.3164 31.0652Z" fill="#55FF00"/>
<path d="M17.9277 34.4705L17.9277 31.0602L14.5376 31.0602L14.5376 34.4705L17.9277 34.4705Z" fill="#55FF00"/>
<path d="M14.5381 37.8826L14.5381 34.4722L11.1475 34.4722L11.1475 37.8826L14.5381 37.8826Z" fill="#55FF00"/>
<path d="M11.1499 37.8794L14.54 37.8794L14.54 34.4689L11.1499 34.4689L11.1499 37.8794Z" fill="#55FF00"/>
<path d="M7.76314 34.4718L11.1533 34.4718L11.1533 31.0615L7.76314 31.0615L7.76314 34.4718Z" fill="#55FF00"/>
<path d="M4.3731 31.0619L7.76367 31.0619L7.76367 27.6513L4.3731 27.6513L4.3731 31.0619Z" fill="#55FF00"/>
<path d="M0.986976 27.6543L4.37695 27.6543L4.37695 24.2439L0.986976 24.2439L0.986976 27.6543Z" fill="#55FF00"/>
<path d="M52.6943 34.6871L52.6943 0.171814L49.3038 0.171814L49.3038 34.6871L52.6943 34.6871Z" fill="#55FF00"/>
<path d="M62.8604 27.659L62.8604 24.2484L59.4702 24.2484L59.4702 27.659L62.8604 27.659Z" fill="#55FF00"/>
<path d="M59.4697 31.0652L59.4697 27.6548L56.0792 27.6548L56.0792 31.0652L59.4697 31.0652Z" fill="#55FF00"/>
<path d="M56.084 34.4705L56.084 31.0602L52.6942 31.0602L52.6942 34.4705L56.084 34.4705Z" fill="#55FF00"/>
<path d="M52.6924 37.8827L52.6924 34.4723L49.3018 34.4723L49.3018 37.8827L52.6924 37.8827Z" fill="#55FF00"/>
<path d="M49.3042 37.8795L52.6943 37.8795L52.6943 34.4691L49.3042 34.4691L49.3042 37.8795Z" fill="#55FF00"/>
<path d="M45.917 34.4719L49.3076 34.4719L49.3076 31.0616L45.917 31.0616L45.917 34.4719Z" fill="#55FF00"/>
<path d="M42.5278 31.062L45.918 31.062L45.918 27.6515L42.5278 27.6515L42.5278 31.062Z" fill="#55FF00"/>
<path d="M39.1415 27.6544L42.5312 27.6544L42.5313 24.2441L39.1415 24.2441L39.1415 27.6544Z" fill="#55FF00"/>
<path d="M90.8486 34.6871L90.8486 0.171814L87.4589 0.171814L87.4589 34.6871L90.8486 34.6871Z" fill="#55FF00"/>
<path d="M101.014 27.659L101.014 24.2484L97.6235 24.2484L97.6235 27.659L101.014 27.659Z" fill="#55FF00"/>
<path d="M97.624 31.0654L97.624 27.6549L94.2334 27.6549L94.2334 31.0654L97.624 31.0654Z" fill="#55FF00"/>
<path d="M94.2373 34.4705L94.2373 31.0602L90.8471 31.0602L90.8471 34.4705L94.2373 34.4705Z" fill="#55FF00"/>
<path d="M90.8467 37.8827L90.8467 34.4723L87.4565 34.4723L87.4565 37.8827L90.8467 37.8827Z" fill="#55FF00"/>
<path d="M87.4579 37.8795L90.8477 37.8795L90.8477 34.4691L87.4579 34.4691L87.4579 37.8795Z" fill="#55FF00"/>
<path d="M84.0708 34.4719L87.4609 34.4719L87.4609 31.0616L84.0708 31.0616L84.0708 34.4719Z" fill="#55FF00"/>
<path d="M80.6807 31.062L84.0713 31.062L84.0713 27.6515L80.6807 27.6515L80.6807 31.062Z" fill="#55FF00"/>
<path d="M77.2944 27.6544L80.6846 27.6544L80.6846 24.2441L77.2944 24.2441L77.2944 27.6544Z" fill="#55FF00"/>
</svg>
