<svg width="324" height="65" viewBox="0 0 324 65" fill="none" xmlns="http://www.w3.org/2000/svg">
<path d="M1.27372 1.39817V59.7037C1.27372 60.0258 1.53657 60.348 1.93084 60.348C2.32511 60.348 2.58796 60.0903 2.58796 59.7037V2.04243H321.817V63.1827H1.86513C1.53657 63.1827 1.20801 63.4404 1.20801 63.827C1.20801 64.1491 1.47086 64.4712 1.86513 64.4712H322.343C322.671 64.4712 323 64.2135 323 63.827V1.39817C323 1.07604 322.737 0.753906 322.343 0.753906H1.86513C1.53657 0.818332 1.27372 1.07604 1.27372 1.39817Z" fill="#4EFF01" stroke="#4EFF01" stroke-miterlimit="10"/>
<path d="M27.1636 16.668H19.7382C19.4096 16.668 19.0811 16.9257 19.0811 17.3122V48.0434C19.0811 48.3656 19.3439 48.6877 19.7382 48.6877C20.0667 48.6877 20.3953 48.43 20.3953 48.0434V17.8921H26.5065V41.8585C26.5065 42.1807 26.7694 42.5028 27.1636 42.5028H41.4232V47.3992H23.878C23.5495 47.3992 23.2209 47.6569 23.2209 48.0434C23.2209 48.3656 23.4838 48.6877 23.878 48.6877H42.0146C42.3431 48.6877 42.6717 48.43 42.6717 48.0434V41.8585C42.6717 41.5364 42.4088 41.2143 42.0146 41.2143H27.755V17.2478C27.755 16.9257 27.4922 16.668 27.1636 16.668Z" fill="#4EFF01" stroke="#4EFF01" stroke-miterlimit="10"/>
<path d="M51.2795 20.2119C50.9509 20.2119 50.6224 20.4696 50.6224 20.8561V48.0439C50.6224 48.366 50.8852 48.6882 51.2795 48.6882H74.9358C75.2644 48.6882 75.5929 48.4305 75.5929 48.0439V42.31C75.5929 41.9879 75.3301 41.6657 74.9358 41.6657H58.6392V35.803H73.3587C73.6873 35.803 74.0158 35.5453 74.0158 35.1587V29.2315C74.0158 28.9094 73.753 28.5872 73.3587 28.5872H58.3107V22.9178H74.8701C75.1987 22.9178 75.5272 22.6601 75.5272 22.2735V17.2483C75.5272 16.9261 75.2644 16.604 74.8701 16.604H51.2138C50.8852 16.604 50.5566 16.8617 50.5566 17.2483C50.5566 17.5704 50.8195 17.8925 51.2138 17.8925H74.213V21.6292H57.7193C57.3907 21.6292 57.0621 21.8869 57.0621 22.2735V29.2315C57.0621 29.5536 57.325 29.8758 57.7193 29.8758H72.7016V34.5789H57.9821C57.6535 34.5789 57.325 34.8366 57.325 35.2231V42.3744C57.325 42.6965 57.5878 43.0187 57.9821 43.0187H74.213V47.4641H51.8709V20.8561C51.9366 20.4696 51.608 20.2119 51.2795 20.2119Z" fill="#4EFF01" stroke="#4EFF01" stroke-miterlimit="10"/>
<path d="M91.4974 41.7293L89.3947 47.3987H86.109C85.7805 47.3987 85.4519 47.6564 85.4519 48.043C85.4519 48.3651 85.7148 48.6873 86.109 48.6873H89.8546C90.1175 48.6873 90.3803 48.494 90.446 48.3007L92.6145 42.5668H103.588L105.691 48.2363C105.823 48.5584 106.086 48.7517 106.414 48.7517H112.854C113.117 48.7517 113.38 48.6228 113.511 48.4296C113.642 48.2363 113.708 47.9786 113.642 47.7209L102.997 17.3118C102.866 16.9897 102.603 16.7964 102.209 16.7964H93.7974C93.4688 16.7964 93.1402 16.9897 93.0088 17.3118L81.9035 47.9786C81.772 48.3007 81.9692 48.6873 82.2977 48.7517C82.3635 48.7517 82.4292 48.8161 82.4949 48.8161C82.7577 48.8161 83.0206 48.6873 83.0863 48.4296L94.1259 18.0849H101.88L112.197 47.592H106.743L104.64 41.9225C104.508 41.6004 104.246 41.4071 103.851 41.4071H92.2203C91.8917 41.2139 91.5631 41.4716 91.4974 41.7293Z" fill="#4EFF01" stroke="#4EFF01" stroke-miterlimit="10"/>
<path d="M102.207 36.4468C102.272 36.7045 102.535 36.8333 102.798 36.8333C102.864 36.8333 102.929 36.8333 102.995 36.7689C103.324 36.6401 103.521 36.3179 103.389 35.9314L98.5268 23.0462C98.3953 22.724 98.0668 22.5308 97.7382 22.5308C97.4097 22.5308 97.0811 22.724 97.0154 23.0462L92.8098 35.6737C92.7441 35.9314 92.7441 36.1891 92.9412 36.3824C93.0727 36.5756 93.3355 36.7045 93.5984 36.7045H98.9868C99.3153 36.7045 99.6439 36.4468 99.6439 36.0602C99.6439 35.7381 99.381 35.416 98.9868 35.416H94.2555L97.8696 24.6568L102.207 36.4468Z" fill="#4EFF01" stroke="#4EFF01" stroke-miterlimit="10"/>
<path d="M122.117 16.6677C121.789 16.6677 121.46 16.9254 121.46 17.312V47.7855C121.46 48.3009 121.854 48.6874 122.38 48.6874H133.354C143.539 48.6874 150.702 41.9227 150.702 32.2588C150.702 22.5949 140.976 16.6677 134.011 16.6677H126.06C125.731 16.6677 125.403 16.9254 125.403 17.312C125.403 17.6341 125.666 17.9562 126.06 17.9562H134.011C140.451 17.9562 149.388 23.4325 149.388 32.2588C149.388 41.3429 142.948 47.4634 133.354 47.4634H122.774V17.2476C122.708 16.9254 122.446 16.6677 122.117 16.6677Z" fill="#4EFF01" stroke="#4EFF01" stroke-miterlimit="10"/>
<path d="M134.931 41.2134H132.828C132.5 41.2134 132.171 41.4711 132.171 41.8577C132.171 42.1798 132.434 42.502 132.828 42.502H134.931C138.742 42.502 144.065 38.8297 144.065 32.9025C144.065 26.9753 140.188 22.7876 134.602 22.7876H128.951C128.426 22.7876 128.031 23.1742 128.031 23.6896V41.7289C128.031 42.051 128.294 42.3731 128.688 42.3731C129.017 42.3731 129.345 42.1154 129.345 41.7289V24.0761H134.668C139.531 24.0761 142.816 27.6196 142.816 32.9025C142.816 38.4431 137.757 41.2134 134.931 41.2134Z" fill="#4EFF01" stroke="#4EFF01" stroke-miterlimit="10"/>
<path d="M159.179 48.0439C159.179 48.366 159.442 48.6882 159.836 48.6882H166.867C167.196 48.6882 167.524 48.4305 167.524 48.0439V38.1223H172.453L178.695 48.3016C178.827 48.4949 179.024 48.6237 179.221 48.6237H186.646C186.843 48.6237 187.106 48.4949 187.172 48.3016C187.303 48.1083 187.303 47.8506 187.172 47.6573L180.732 36.6405C182.244 35.6741 186.121 32.6461 186.121 27.6209C186.121 20.5984 182.178 16.604 175.278 16.604H160.23C159.902 16.604 159.573 16.8617 159.573 17.2483V44.2428C159.573 44.5649 159.836 44.887 160.23 44.887C160.559 44.887 160.887 44.6293 160.887 44.2428V17.8281H175.278C183.624 17.8281 184.872 23.9486 184.872 27.5564C184.872 32.7749 180.141 35.5453 179.615 35.8674C179.484 35.9318 179.352 36.0607 179.287 36.2539C179.221 36.3828 179.287 36.5761 179.352 36.7049L185.595 47.2708H179.615L173.373 37.0915C173.241 36.8982 173.044 36.7693 172.847 36.7693H166.933C166.604 36.7693 166.276 37.0271 166.276 37.4136V47.2708H159.902C159.442 47.3996 159.179 47.6573 159.179 48.0439Z" fill="#4EFF01" stroke="#4EFF01" stroke-miterlimit="10"/>
<path d="M166.408 25.9447C166.08 25.9447 165.751 26.2024 165.751 26.5889V32.0007C165.751 32.3229 166.014 32.645 166.408 32.645H172.782C176.988 32.645 178.893 29.9391 178.893 27.2332C178.893 24.0763 176.791 22.1436 173.374 22.1436H166.408C166.08 22.1436 165.751 22.4013 165.751 22.7878C165.751 23.1099 166.014 23.4321 166.408 23.4321H173.374C176.068 23.4321 177.579 24.8494 177.579 27.2332C177.579 29.2304 176.331 31.4209 172.716 31.4209H167V26.6534C167.065 26.2024 166.737 25.9447 166.408 25.9447Z" fill="#4EFF01" stroke="#4EFF01" stroke-miterlimit="10"/>
<path d="M252.688 23.8832C255.711 23.8832 258.537 25.365 260.245 27.8132C260.377 28.0064 260.64 28.1353 260.902 28.0709L267.868 26.9112C268.065 26.8468 268.262 26.7823 268.328 26.5891C268.394 26.3958 268.459 26.2025 268.328 26.0092C265.568 19.9532 259.457 16.0232 252.688 16.0232C246.774 16.0232 241.386 18.9868 238.232 23.8832C235.012 28.9084 234.749 35.1577 237.575 40.8916C239.02 43.8552 241.452 46.239 244.474 47.6564C247.169 48.8805 249.929 49.5247 252.688 49.5247C254.726 49.5247 256.763 49.2026 258.668 48.4939C263.005 46.8833 266.488 43.5975 268.394 39.4743C268.459 39.281 268.459 39.0877 268.394 38.8944C268.328 38.7011 268.131 38.6367 267.934 38.5723L264.32 37.928C263.991 37.8636 263.662 38.1213 263.597 38.4434C263.531 38.7656 263.794 39.0877 264.122 39.1521L266.948 39.6031C265.174 43.0821 262.085 45.8524 258.34 47.2054C254.2 48.7516 249.534 48.4295 245.132 46.4323C242.372 45.1437 240.137 42.9533 238.823 40.3118C236.195 34.9644 236.392 29.1661 239.415 24.5274C242.306 19.9532 247.366 17.2473 252.82 17.2473C258.8 17.2473 264.254 20.533 266.948 25.7515L261.231 26.7179C259.26 24.1409 256.171 22.5946 252.886 22.5946C249.271 22.5946 245.986 24.3986 244.08 27.4266C242.109 30.519 242.043 34.3202 243.817 37.8636C244.606 39.4743 245.92 40.7628 247.563 41.6003C253.543 44.6928 258.997 42.1157 261.56 38.4434C261.757 38.1857 261.691 37.7348 261.362 37.5415C261.1 37.3482 260.705 37.4126 260.442 37.7348C258.208 40.9561 253.411 43.1465 248.089 40.4407C246.774 39.732 245.657 38.6367 244.934 37.2838C243.357 34.1913 243.423 30.8412 245.132 28.0709C246.577 25.4294 249.469 23.8832 252.688 23.8832Z" fill="#4EFF01" stroke="#4EFF01" stroke-miterlimit="10"/>
<path d="M284.82 16.0233H277.789C277.46 16.0233 277.132 16.281 277.132 16.6676C277.132 16.9897 277.395 17.3118 277.789 17.3118H284.163V29.0374C284.163 29.3595 284.426 29.6816 284.82 29.6816H290.011C290.274 29.6816 290.471 29.5528 290.603 29.3595L297.174 17.0541H303.482L294.677 32.4519C294.546 32.6452 294.546 32.9029 294.677 33.0962L303.417 47.7209H297.503L289.88 35.48C289.749 35.2867 289.551 35.1578 289.354 35.1578H284.82C284.492 35.1578 284.163 35.4155 284.163 35.8021V47.7209H278.709V20.8553C278.709 20.5331 278.446 20.211 278.052 20.211C277.723 20.211 277.395 20.4687 277.395 20.8553V48.3007C277.395 48.6229 277.658 48.945 278.052 48.945H284.82C285.149 48.945 285.477 48.6873 285.477 48.3007V36.3819H289.026L296.648 48.6229C296.78 48.8161 296.977 48.945 297.174 48.945H304.6C304.797 48.945 305.06 48.8161 305.125 48.6229C305.257 48.4296 305.257 48.1719 305.125 47.9786L295.991 32.7096L305.125 16.6676C305.257 16.4743 305.257 16.2166 305.125 16.0233C304.994 15.83 304.797 15.7012 304.6 15.7012H296.78C296.517 15.7012 296.32 15.83 296.188 16.0233L289.617 28.3287H285.477V16.6676C285.477 16.281 285.214 16.0233 284.82 16.0233Z" fill="#4EFF01" stroke="#4EFF01" stroke-miterlimit="10"/>
<path d="M211.421 41.6653C207.084 41.6653 203.339 38.6373 202.485 34.514C202.419 34.1919 202.09 33.9342 201.762 33.9986C201.433 34.063 201.17 34.3852 201.236 34.7073C202.222 39.4748 206.493 42.8894 211.421 42.8894C217.138 42.8894 221.804 38.3151 221.804 32.7101C221.804 27.105 217.138 22.5308 211.421 22.5308C206.493 22.5308 202.222 25.9453 201.236 30.7129C201.17 31.035 201.368 31.3571 201.762 31.4216C202.09 31.486 202.419 31.2927 202.485 30.9061C203.339 26.7185 207.084 23.7549 211.421 23.7549C216.416 23.7549 220.49 27.7493 220.49 32.6456C220.555 37.6709 216.481 41.6653 211.421 41.6653Z" fill="#4EFF01" stroke="#4EFF01" stroke-miterlimit="10"/>
<path d="M227.125 30.97C227.191 31.2922 227.454 31.5499 227.848 31.5499C228.176 31.4854 228.439 31.2277 228.439 30.8412C227.454 22.4014 220.16 16.0232 211.486 16.0232C202.089 16.0232 194.4 23.561 194.4 32.774C194.4 41.9869 202.089 49.5247 211.486 49.5247C220.16 49.5247 227.454 43.1465 228.439 34.7067C228.505 34.3846 228.242 34.0625 227.848 33.9981C227.519 33.9336 227.191 34.1913 227.125 34.5779C226.205 42.3734 219.437 48.2362 211.42 48.2362C202.68 48.2362 195.649 41.2782 195.649 32.774C195.649 24.2053 202.746 17.3117 211.42 17.3117C219.437 17.2473 226.205 23.1745 227.125 30.97Z" fill="#4EFF01" stroke="#4EFF01" stroke-miterlimit="10"/>
</svg>
