<svg width="1024" height="359" viewBox="0 0 1024 359" fill="none" xmlns="http://www.w3.org/2000/svg">
<circle cx="892.55" cy="16.5529" r="4.02885" fill="#55FF00"/>
<circle cx="911.937" cy="16.5527" r="4.02885" fill="#55FF00"/>
<circle cx="931.324" cy="16.5526" r="4.02885" fill="#55FF00"/>
<circle cx="950.711" cy="16.5527" r="4.02885" fill="#55FF00"/>
<circle cx="970.097" cy="16.5525" r="4.02885" fill="#55FF00"/>
<circle cx="989.484" cy="16.5527" r="4.02885" fill="#55FF00"/>
<circle cx="1008.87" cy="16.5526" r="4.02885" fill="#55FF00"/>
<path d="M295.412 45.2598H22.4121C11.3664 45.2598 2.41211 54.2141 2.41211 65.2598V337.26C2.41211 348.305 11.3664 357.26 22.4121 357.26H71.4121" stroke="#8F00FF" stroke-width="3"/>
<path d="M739.412 47.2598H1002.41C1013.46 47.2598 1022.41 56.2141 1022.41 67.2598V329.26C1022.41 340.305 1013.46 349.26 1002.41 349.26H951.412" stroke="#8F00FF" stroke-width="3"/>
<path d="M256.473 12.3204C257.059 11.7346 257.059 10.7849 256.473 10.1991L246.927 0.653164C246.341 0.0673771 245.391 0.0673771 244.806 0.653164C244.22 1.23895 244.22 2.1887 244.806 2.77448L253.291 11.2598L244.806 19.745C244.22 20.3308 244.22 21.2806 244.806 21.8664C245.391 22.4522 246.341 22.4522 246.927 21.8664L256.473 12.3204ZM255.412 9.75977H77.4121V12.7598H255.412V9.75977Z" fill="#55FF00"/>
</svg>
