<svg width="334" height="16" viewBox="0 0 334 16" fill="none" xmlns="http://www.w3.org/2000/svg">
<path d="M333.047 8.6285C333.437 8.23798 333.437 7.60482 333.047 7.21429L326.683 0.85033C326.292 0.459805 325.659 0.459805 325.268 0.850329C324.878 1.24085 324.878 1.87402 325.268 2.26454L330.925 7.9214L325.268 13.5783C324.878 13.9688 324.878 14.6019 325.268 14.9925C325.659 15.383 326.292 15.383 326.683 14.9925L333.047 8.6285ZM332.339 6.9214L204.456 6.92139L204.456 8.92139L332.339 8.9214L332.339 6.9214Z" fill="#55FF00"/>
<circle cx="167.529" cy="9.18482" r="4.98658" fill="#55FF00"/>
<circle cx="126.909" cy="9.18482" r="4.98658" fill="#55FF00"/>
<circle cx="86.2893" cy="9.18482" r="4.98658" fill="#55FF00"/>
<circle cx="45.6702" cy="9.18482" r="4.98658" fill="#55FF00"/>
<circle cx="5.05006" cy="9.18482" r="4.98658" fill="#55FF00"/>
</svg>
