<svg width="28" height="21" viewBox="0 0 28 21" fill="none" xmlns="http://www.w3.org/2000/svg">
<path d="M27.0846 1.02132L22.8604 20.0059C22.6878 20.6488 22.2582 20.9697 21.5697 20.9697C21.3192 20.9697 21.0687 20.8964 20.8187 20.7504L14.5761 16.4808L11.1028 19.5461C10.9308 19.7071 10.7273 19.7871 10.4928 19.7871C10.0079 19.7871 9.68656 19.5828 9.53065 19.1741L7.06655 12.2545L0.941114 10.4811C0.550167 10.3495 0.331189 10.0941 0.28418 9.71435C0.28418 9.30571 0.495422 9.02866 0.917907 8.88264C17.6739 3.04342 26.0992 0.123535 26.1926 0.123535C26.4116 0.123535 26.6187 0.204042 26.8145 0.364499C27.0102 0.525512 27.1001 0.744268 27.0846 1.02132Z" fill="#4EFF01"/>
<path d="M21.9452 3.73682C21.8982 3.73682 17.4234 6.38631 8.52148 11.6853L10.3757 17.4657L10.7981 13.809C18.4487 7.35683 22.2772 4.10881 22.2856 4.06495C22.2933 4.02109 22.2975 3.99222 22.2975 3.97723C22.2975 3.81677 22.1797 3.73682 21.9452 3.73682Z" fill="#010101"/>
</svg>
